<svg width="119" height="75" viewBox="0 0 119 75" fill="none" xmlns="http://www.w3.org/2000/svg">
<path fill-rule="evenodd" clip-rule="evenodd" d="M39.307 70.2138C39.4339 70.043 39.307 69.8403 39.307 69.4882C39.0587 69.4509 36.533 69.4135 36.2793 69.3815C36.3777 67.3417 35.7182 65.3382 34.4299 63.7638C32.9786 62.1344 30.9527 61.1442 28.7867 61.0056C28.6005 63.1883 29.2639 65.3583 30.6361 67.0554C31.226 67.7557 31.9435 68.3352 32.7496 68.7626C31.1565 68.2712 29.6021 67.6595 28.0997 66.9327C28.7813 64.9349 28.6888 62.7507 27.8408 60.8188C26.8442 58.8745 25.1394 57.3961 23.0853 56.6949C22.3426 58.7543 22.428 61.0255 23.323 63.0222C23.6896 63.7849 24.1768 64.4823 24.7656 65.0868C23.3 64.151 21.9032 63.1098 20.5859 61.9712C21.2396 61.1052 21.7085 60.1118 21.9629 59.0537C22.2173 57.9956 22.2518 56.8957 22.0641 55.8235C21.8765 54.7513 21.4707 53.73 20.8725 52.824C20.2743 51.918 19.4967 51.147 18.5886 50.5597C17.3244 52.3386 16.8008 54.5468 17.1302 56.7109C17.3554 57.9978 17.9009 59.2058 18.7154 60.2213C17.2934 58.7634 16.0058 57.1777 14.8687 55.4839C15.0748 55.2705 15.0536 55.2865 15.4499 54.8597C16.7838 53.5188 17.6149 51.7518 17.8013 49.8608C17.9045 47.6723 17.1597 45.5291 15.7247 43.8856C14.0733 45.3 13.025 47.3023 12.7974 49.4767C12.7093 50.842 12.9772 52.2069 13.5741 53.4352C13.2729 52.9017 12.977 52.3682 12.697 51.8347C12.536 51.415 12.3435 51.0084 12.121 50.6184C11.6287 49.5795 11.2016 48.5104 10.8423 47.4174C10.9797 47.3693 11.1276 47.316 11.2544 47.2573C12.1796 46.8444 13.0104 46.2432 13.695 45.4914C14.3796 44.7396 14.9033 43.8533 15.2333 42.888C15.9469 40.8229 15.8409 38.5591 14.9374 36.5713C12.9518 37.443 11.3793 39.0594 10.5517 41.0794C10.0249 42.5376 9.93301 44.1198 10.2875 45.6301C9.65755 43.4133 9.2643 41.1347 9.11444 38.8334C11.2214 38.5854 13.154 37.5315 14.5147 35.8885C15.8409 34.2239 16.3271 32.0953 16.1368 29.7746C13.9768 30.0007 11.9879 31.064 10.5887 32.7408C9.71748 33.856 9.16884 35.1928 9.00347 36.6033C9.00347 35.2589 9.53187 30.5001 9.53187 30.5801C11.6895 30.8297 13.8588 30.2234 15.582 28.889C17.2267 27.4636 18.2545 25.4457 18.4459 23.2659C16.2938 23.0532 14.1404 23.6581 12.4064 24.9624C11.0869 25.9249 10.1815 27.3601 9.87533 28.9743C10.2558 27.1228 10.8132 25.3128 11.5398 23.57C13.6832 23.8166 15.8373 23.2078 17.5424 21.8734C19.2023 20.458 20.2443 18.4402 20.4433 16.2557C18.3342 16.0104 16.2116 16.5824 14.5041 17.8562C15.176 16.815 15.9045 15.8123 16.6864 14.8526C17.2621 15.1559 17.8702 15.3922 18.4988 15.5568C20.0204 15.9321 21.6188 15.8354 23.0853 15.2794C25.0917 14.4504 26.7003 12.8664 27.5714 10.862C25.6064 9.9384 23.3625 9.82359 21.3151 10.5419C20.9802 10.6682 20.6552 10.8198 20.3429 10.9954C21.2781 10.1638 22.257 9.38374 23.2755 8.65868C25.3847 9.06195 27.5666 8.62404 29.3626 7.43697C31.1141 6.14522 32.3001 4.21706 32.6704 2.0593C30.5371 1.64046 28.3262 2.07468 26.504 3.27035C24.8925 4.45925 23.7653 6.2004 23.3336 8.16786C22.9162 8.45062 22.5252 8.73871 22.1341 9.03213C22.7857 8.21331 23.2576 7.26407 23.5185 6.24727C24.0085 4.11186 23.6459 1.86755 22.5093 0C20.6348 1.0948 19.2568 2.88419 18.6679 4.98821C18.1866 7.09454 18.5332 9.30723 19.6348 11.1608C18.8689 11.8683 18.1388 12.6144 17.4473 13.3962C17.8799 12.5265 18.1334 11.5773 18.1923 10.606C18.3033 8.42046 17.5594 6.27844 16.121 4.64144C14.4625 6.05553 13.416 8.06725 13.2042 10.2485C13.1018 12.4052 13.831 14.5181 15.2386 16.1437C14.6045 17.0079 14.0285 17.8989 13.4896 18.8112C13.8005 17.6758 13.8439 16.4827 13.6164 15.3274C13.1283 13.1844 11.8268 11.3205 9.99158 10.1365C8.78002 11.9511 8.31746 14.1714 8.70229 16.3251C9.15467 18.3611 10.3485 20.1511 12.047 21.3399C11.656 22.4069 11.1858 23.4739 10.7789 24.5409C10.9947 23.133 10.8115 21.6922 10.2505 20.385C9.33422 18.3966 7.68164 16.8506 5.64815 16.0796C4.83661 18.1092 4.83661 20.3774 5.64815 22.4069C6.53955 24.3387 8.12967 25.8525 10.092 26.6376C9.788 27.6798 9.5393 28.7376 9.34693 29.8066C9.23244 28.9762 8.9787 28.1715 8.59661 27.4272C7.53013 25.5122 5.76486 24.0936 3.67723 23.4739C3.02484 25.5532 3.18555 27.8058 4.12637 29.7692C5.13885 31.6272 6.81803 33.0229 8.81854 33.6691C8.73928 34.5707 8.68115 35.483 8.68115 36.4006C8.34566 35.3588 7.78426 34.4056 7.03784 33.6104C5.52085 32.0444 3.45783 31.1388 1.28888 31.087C1.19598 33.2758 1.95453 35.4145 3.40246 37.0461C4.83976 38.5239 6.77057 39.4083 8.81854 39.5269C8.93275 40.85 9.12685 42.1649 9.39977 43.4641C8.85637 42.3224 8.04124 41.3345 7.02727 40.5886C5.23152 39.3565 3.03143 38.8782 0.892578 39.2548C1.21795 41.419 2.36439 43.3705 4.08938 44.6965C5.82743 45.8919 7.95028 46.3763 10.0286 46.0516C10.044 46.0896 10.0564 46.1289 10.0656 46.169C10.3537 47.1797 10.6923 48.1751 11.0801 49.1512C10.5531 48.5701 9.93988 48.0752 9.26239 47.6841C7.34075 46.652 5.09587 46.4185 3.00617 47.0332C3.56197 49.1515 4.9159 50.9666 6.77892 52.0908C8.61225 53.0809 10.747 53.3398 12.7604 52.8164C13.2293 53.7205 13.7461 54.5985 14.3086 55.4465C13.6177 54.8762 12.8324 54.4337 11.9889 54.1394C9.91222 53.4906 7.66705 53.6819 5.72741 54.6729C6.67416 56.6439 8.33518 58.172 10.3667 58.9409C12.3939 59.5763 14.5851 59.4045 16.4909 58.4608C17.0932 59.181 17.7062 59.8746 18.3561 60.5414C17.634 60.1763 16.8576 59.933 16.0576 59.8212C13.9018 59.585 11.7396 60.2049 10.0286 61.5497C11.3208 63.3097 13.2439 64.4893 15.3865 64.8361C17.4738 65.0764 19.5732 64.504 21.257 63.2356C22.2278 64.0241 23.2384 64.7613 24.2847 65.4443C23.3485 65.1436 22.3629 65.0312 21.3838 65.1135C19.2327 65.3589 17.2621 66.4447 15.8938 68.1385C17.536 69.5692 19.6682 70.2932 21.833 70.1551C23.973 69.9187 25.938 68.8511 27.3124 67.1781C28.327 67.7116 29.352 68.1651 30.4141 68.5813C29.4376 68.5329 28.4611 68.6779 27.5396 69.0081C25.5211 69.8065 23.8869 71.3627 22.9796 73.3507C24.9318 74.3065 27.1763 74.4558 29.2358 73.7669C31.0572 73.0626 32.5682 71.7225 33.4947 69.9897C34.5938 69.979 38.2027 70.0324 39.307 70.2138Z" fill="#4579CB"/>
<path d="M39.1968 28.8235V23.2691H33.9061V25.2329H37.0277C36.8958 25.8191 36.1777 26.9329 34.463 26.9329C32.7776 26.9329 31.3414 25.8045 31.3414 23.6354C31.3414 21.3199 32.9975 20.3819 34.4044 20.3819C36.1338 20.3819 36.8226 21.5544 36.9838 22.1992L39.2114 21.4225C38.7571 19.9716 37.3795 18.2129 34.4044 18.2129C31.4733 18.2129 28.9965 20.3673 28.9965 23.6354C28.9965 26.9183 31.3707 29.0433 34.2578 29.0433C35.7381 29.0433 36.72 28.4278 37.1743 27.7683L37.3209 28.8235H39.1968ZM42.2314 23.1225C42.1728 22.932 42.1435 22.7268 42.1435 22.5363C42.1435 21.7449 42.5831 21.1293 43.4771 21.1293C44.3271 21.1293 44.7521 21.6569 44.7521 22.2578C44.7521 22.888 44.459 23.2837 43.7116 23.7234L42.1581 24.632C40.4141 25.6433 39.9158 27.0795 39.9158 28.8235H47.141V26.889H42.7443C42.8762 26.6105 43.1107 26.42 43.3892 26.2441L45.1918 25.1743C46.4082 24.4562 47.0677 23.4449 47.0677 22.2139C47.0677 20.5138 45.7194 19.0922 43.5357 19.0922C41.2495 19.0922 39.9744 20.6164 39.9744 22.3164C39.9744 22.6096 40.0184 22.9906 40.0624 23.1078L42.2314 23.1225ZM55.8258 29.0433C59.05 29.0433 60.4276 26.845 60.7647 25.4088L58.5517 24.7786C58.3465 25.526 57.6284 26.7278 55.8258 26.7278C54.2723 26.7278 52.8361 25.5993 52.8361 23.6501C52.8361 21.4664 54.4042 20.4698 55.7965 20.4698C57.6284 20.4698 58.2879 21.6863 58.4491 22.4044L60.6328 21.7156C60.2957 20.2207 58.9181 18.2129 55.7965 18.2129C52.8947 18.2129 50.4325 20.4112 50.4325 23.6501C50.4325 26.889 52.8361 29.0433 55.8258 29.0433ZM65.9769 21.5397C65.8304 21.4957 65.6105 21.4664 65.3907 21.4664C64.8045 21.4664 63.8812 21.7009 63.5001 22.5216V21.5397H61.3458V28.8235H63.5734V25.6433C63.5734 24.1924 64.3795 23.6648 65.2735 23.6648C65.4933 23.6648 65.7278 23.6794 65.9769 23.738V21.5397ZM69.9557 26.9916C69.1203 26.9916 68.3143 26.3907 68.3143 25.1743C68.3143 23.9432 69.1203 23.3716 69.9557 23.3716C70.8057 23.3716 71.5971 23.9432 71.5971 25.1743C71.5971 26.4053 70.8057 26.9916 69.9557 26.9916ZM69.9557 21.3199C67.7867 21.3199 66.0866 22.9173 66.0866 25.1743C66.0866 27.4312 67.7867 29.0433 69.9557 29.0433C72.1394 29.0433 73.8248 27.4312 73.8248 25.1743C73.8248 22.9173 72.1394 21.3199 69.9557 21.3199ZM78.7181 21.5397L77.2819 25.8484L76.0655 21.5397H73.7499L76.0361 28.8235H78.2931L79.8466 24.1191L81.4294 28.8235H83.6424L85.899 21.5397H83.7157L82.4992 25.8631L81.0777 21.5397H78.7181ZM93.543 18.2129H91.345V22.1113C91.169 21.8328 90.627 21.3638 89.381 21.3638C87.315 21.3638 85.849 22.9906 85.849 25.1596C85.849 27.4019 87.403 28.9847 89.455 28.9847C90.334 28.9847 91.067 28.6183 91.404 28.12C91.404 28.4132 91.448 28.7356 91.462 28.8235H93.602C93.587 28.6623 93.543 28.1787 93.543 27.5192V18.2129ZM88.092 25.1743C88.092 23.9579 88.868 23.3716 89.733 23.3716C90.598 23.3716 91.374 23.9579 91.374 25.1743C91.374 26.376 90.598 26.9916 89.733 26.9916C88.868 26.9916 88.092 26.376 88.092 25.1743ZM50.2971 43.8235V42.466H46.4271V35.381H44.9982V43.8235H50.2971ZM51.7965 40.2869C51.8442 39.6677 52.3443 39.0009 53.2135 39.0009C54.1662 39.0009 54.6186 39.6082 54.6425 40.2869H51.7965ZM54.7973 41.7992C54.6067 42.3708 54.1781 42.8114 53.3445 42.8114C52.4872 42.8114 51.7965 42.1803 51.7608 41.2991H55.9999C56.0118 41.2753 56.0357 41.0848 56.0357 40.8585C56.0357 39.0247 54.9878 37.8459 53.2016 37.8459C51.737 37.8459 50.3795 39.0605 50.3795 40.8942C50.3795 42.859 51.7727 44.0021 53.3445 44.0021C54.7377 44.0021 55.6546 43.1805 55.9642 42.1683L54.7973 41.7992ZM56.4839 42.2517C56.4839 43.1686 57.234 44.0021 58.4486 44.0021C59.3893 44.0021 59.9609 43.5258 60.2348 43.0852C60.2348 43.5496 60.2824 43.7878 60.2943 43.8235H61.5803C61.5684 43.764 61.5089 43.4186 61.5089 42.8947V40.0131C61.5089 38.858 60.8302 37.8459 59.044 37.8459C57.6151 37.8459 56.7101 38.7389 56.6029 39.7392L57.8652 40.025C57.9247 39.4415 58.3296 38.9771 59.0559 38.9771C59.818 38.9771 60.1514 39.3701 60.1514 39.8583C60.1514 40.0607 60.0562 40.2274 59.7227 40.275L58.2343 40.5013C57.246 40.6442 56.4839 41.2157 56.4839 42.2517ZM58.7106 42.9185C58.1628 42.9185 57.8652 42.5613 57.8652 42.1683C57.8652 41.692 58.2105 41.4539 58.6392 41.3824L60.1514 41.1562V41.4182C60.1514 42.5494 59.4846 42.9185 58.7106 42.9185ZM63.655 40.9061C63.655 39.7987 64.3218 39.0962 65.2268 39.0962C66.1318 39.0962 66.751 39.7868 66.751 40.8942C66.751 42.0016 66.1198 42.7518 65.2149 42.7518C64.2742 42.7518 63.655 42.0135 63.655 40.9061ZM68.0846 35.2024H66.739V38.7032C66.5604 38.3341 66.0484 37.8697 65.0363 37.8697C63.4049 37.8697 62.2737 39.2391 62.2737 40.9061C62.2737 42.6566 63.393 43.9664 65.0601 43.9664C65.8817 43.9664 66.489 43.5615 66.7629 43.0733C66.7629 43.3115 66.7986 43.6925 66.8224 43.8235H68.1441C68.1322 43.7282 68.0846 43.2877 68.0846 42.7637V35.2024ZM70.3064 40.2869C70.354 39.6677 70.8542 39.0009 71.7234 39.0009C72.676 39.0009 73.1285 39.6082 73.1523 40.2869H70.3064ZM73.3071 41.7992C73.1166 42.3708 72.6879 42.8114 71.8544 42.8114C70.997 42.8114 70.3064 42.1803 70.2707 41.2991H74.5098C74.5217 41.2753 74.5455 41.0848 74.5455 40.8585C74.5455 39.0247 73.4977 37.8459 71.7115 37.8459C70.2469 37.8459 68.8894 39.0605 68.8894 40.8942C68.8894 42.859 70.2826 44.0021 71.8544 44.0021C73.2476 44.0021 74.1645 43.1805 74.4741 42.1683L73.3071 41.7992ZM78.7446 37.9888C78.6851 37.9769 78.5422 37.953 78.3755 37.953C77.6134 37.953 76.9704 38.3222 76.6965 38.9533V38.0245H75.351V43.8235H76.7323V41.0609C76.7323 39.9773 77.2205 39.3581 78.2922 39.3581C78.435 39.3581 78.5898 39.3701 78.7446 39.3939V37.9888Z" fill="#4579CB"/>
<path d="M51.1733 64.7594C51.1613 64.6273 51.1373 64.4832 51.1373 64.3632C51.1373 63.5587 51.5815 62.9223 52.494 62.9223C53.3705 62.9223 53.8028 63.4987 53.8028 64.135C53.8028 64.6994 53.5026 65.1676 52.8062 65.5999L51.5215 66.4043C50.1647 67.2448 49.6964 68.2894 49.6724 69.6222H55.3037V68.3495H51.4494C51.5575 67.9652 51.8697 67.6891 52.2419 67.4609L53.7548 66.5244C54.6913 65.9481 55.2556 65.1196 55.2556 64.111C55.2556 62.7782 54.235 61.6616 52.5181 61.6616C50.753 61.6616 49.7445 62.8743 49.7445 64.2191C49.7445 64.3752 49.7685 64.5553 49.7805 64.6633L51.1733 64.7594ZM57.3277 65.7319C57.3277 64.051 57.832 62.9343 59.0807 62.9343C60.3174 62.9343 60.8217 64.039 60.8217 65.7319C60.8217 67.4249 60.3174 68.5296 59.0807 68.5296C57.844 68.5296 57.3277 67.4249 57.3277 65.7319ZM55.8989 65.7319C55.8989 67.7371 56.6913 69.8023 59.0807 69.8023C61.4581 69.8023 62.2505 67.7371 62.2505 65.7319C62.2505 63.7388 61.4581 61.6616 59.0807 61.6616C56.6913 61.6616 55.8989 63.7268 55.8989 65.7319ZM64.2923 64.7594C64.2802 64.6273 64.2562 64.4832 64.2562 64.3632C64.2562 63.5587 64.7005 62.9223 65.613 62.9223C66.4895 62.9223 66.9218 63.4987 66.9218 64.135C66.9218 64.6994 66.6216 65.1676 65.9252 65.5999L64.6405 66.4043C63.2837 67.2448 62.8154 68.2894 62.7914 69.6222H68.4226V68.3495H64.5684C64.6765 67.9652 64.9887 67.6891 65.3609 67.4609L66.8737 66.5244C67.8103 65.9481 68.3746 65.1196 68.3746 64.111C68.3746 62.7782 67.354 61.6616 65.637 61.6616C63.872 61.6616 62.8634 62.8743 62.8634 64.2191C62.8634 64.3752 62.8874 64.5553 62.8995 64.6633L64.2923 64.7594ZM72.0436 69.6222V61.8417H70.7948C70.6268 62.6582 69.8583 63.2825 68.7417 63.3065V64.2911H70.6268V69.6222H72.0436Z" fill="#4579CB"/>
<path fill-rule="evenodd" clip-rule="evenodd" d="M86.074 69.9897C86.991 71.7174 88.49 73.057 90.299 73.7669C92.358 74.4558 94.602 74.3065 96.554 73.3507C95.648 71.3618 94.014 69.805 91.995 69.0081C91.074 68.6775 90.098 68.5325 89.122 68.5813C90.178 68.1651 91.234 67.6956 92.222 67.1781C92.887 68.0251 93.716 68.7252 94.659 69.2351C95.603 69.745 96.639 70.0537 97.706 70.1423C98.772 70.2308 99.845 70.0972 100.858 69.7498C101.871 69.4023 102.802 68.8484 103.595 68.1224C102.23 66.4259 100.262 65.3363 98.112 65.0868C97.135 65.0043 96.151 65.1167 95.217 65.4176C96.257 64.7389 97.26 64.0052 98.223 63.2196C99.058 63.8808 100.018 64.3634 101.044 64.638C102.071 64.9125 103.141 64.9733 104.191 64.8165C105.241 64.6598 106.249 64.2889 107.152 63.7264C108.056 63.1638 108.837 62.4214 109.447 61.5444C107.737 60.1991 105.575 59.5791 103.42 59.8159C102.621 59.9277 101.845 60.1709 101.123 60.5361C101.772 59.8692 102.385 59.1757 102.987 58.4554C104.892 59.3992 107.083 59.571 109.109 58.9356C111.14 58.1667 112.801 56.6386 113.747 54.6676C111.808 53.6765 109.564 53.4853 107.488 54.1341C106.653 54.4274 105.875 54.8662 105.19 55.4305C105.757 54.588 106.279 53.7154 106.753 52.8164C107.768 53.1073 108.831 53.1875 109.877 53.0524C110.924 52.9173 111.932 52.5696 112.842 52.0302C113.751 51.4908 114.544 50.7709 115.17 49.9139C115.797 49.0569 116.246 48.0807 116.489 47.0439C114.404 46.4335 112.167 46.667 110.25 47.6948C109.575 48.0859 108.963 48.5809 108.439 49.1619C108.824 48.1857 109.161 47.1903 109.447 46.1796C109.457 46.1396 109.469 46.1003 109.484 46.0623C110.529 46.2524 111.602 46.2253 112.636 45.9825C113.671 45.7397 114.645 45.2863 115.5 44.6501C116.355 44.0139 117.072 43.2082 117.608 42.2824C118.144 41.3565 118.488 40.33 118.617 39.2655C116.481 38.8908 114.284 39.3691 112.49 40.5992C111.476 41.3452 110.661 42.3331 110.118 43.4748C110.391 42.1756 110.585 40.8607 110.699 39.5376C112.754 39.4252 114.693 38.5402 116.135 37.0568C117.58 35.4236 118.338 33.286 118.248 31.0976C116.075 31.1425 114.007 32.0445 112.485 33.6104C111.742 34.4133 111.186 35.3739 110.858 36.422C110.858 35.5043 110.8 34.5921 110.726 33.6904C112.719 33.0392 114.391 31.6444 115.4 29.7906C116.341 27.819 116.496 25.5577 115.834 23.4739C113.754 24.1064 111.999 25.5319 110.942 27.4485C110.563 28.1939 110.309 28.9981 110.192 29.8279C109.988 28.7583 109.727 27.7004 109.41 26.6589C111.377 25.8702 112.967 24.3477 113.853 22.4069C114.667 20.378 114.667 18.1086 113.853 16.0796C111.825 16.8517 110.177 18.3953 109.263 20.3796C108.704 21.6876 108.521 23.1277 108.734 24.5356C108.328 23.4686 107.863 22.4016 107.467 21.3346C109.158 20.1523 110.352 18.3756 110.816 16.3517C111.202 14.1888 110.738 11.9588 109.521 10.1365C107.691 11.3155 106.391 13.171 105.898 15.3061C105.669 16.4616 105.714 17.6554 106.03 18.7898C105.502 17.8775 104.91 16.9866 104.276 16.1223C105.677 14.5036 106.405 12.4015 106.31 10.2538C106.099 8.07197 105.055 6.05881 103.399 4.64144C101.96 6.27791 101.214 8.41981 101.323 10.606C101.382 11.5773 101.636 12.5265 102.068 13.3962C101.376 12.6172 100.653 11.8703 99.887 11.1608C100.989 9.30772 101.339 7.09601 100.864 4.98821C100.268 2.88303 98.885 1.09425 97.008 0C95.871 1.86727 95.51 4.11266 96.004 6.24727C96.263 7.26375 96.733 8.21302 97.383 9.03213C96.992 8.73871 96.601 8.45062 96.189 8.16786C95.757 6.20079 94.63 4.45993 93.02 3.27035C91.198 2.07468 88.988 1.64046 86.855 2.0593C87.226 4.21706 88.411 6.14522 90.162 7.43697C91.958 8.62404 94.139 9.06195 96.247 8.65868C97.266 9.38244 98.245 10.1625 99.179 10.9954C98.868 10.8208 98.545 10.6692 98.212 10.5419C96.164 9.82328 93.919 9.93808 91.953 10.862C92.825 12.8654 94.433 14.449 96.437 15.2794C97.909 15.848 99.517 15.9522 101.049 15.5782C101.677 15.4135 102.285 15.1773 102.861 14.8739C103.642 15.8349 104.372 16.8376 105.047 17.8775C103.338 16.6039 101.215 16.032 99.105 16.277C99.3 18.4506 100.332 20.46 101.978 21.8734C103.686 23.2097 105.844 23.8168 107.99 23.5646C108.714 25.3084 109.271 27.1181 109.653 28.969C109.347 27.3477 108.438 25.9063 107.113 24.9411C105.381 23.6376 103.23 23.0327 101.08 23.2445C101.267 25.4245 102.293 27.4435 103.938 28.8676C105.661 30.202 107.829 30.8084 109.986 30.5588C109.986 30.4788 110.514 35.2376 110.514 36.582C110.349 35.1715 109.801 33.8347 108.93 32.7195C107.531 31.0427 105.543 29.9793 103.383 29.7532C103.223 30.8189 103.279 31.9066 103.55 32.9495C103.82 33.9923 104.299 34.9683 104.956 35.8176C105.614 36.6669 106.436 37.3716 107.373 37.8883C108.309 38.4051 109.341 38.723 110.403 38.8227C110.254 41.124 109.861 43.4026 109.231 45.6195C109.583 44.1093 109.493 42.5282 108.972 41.0687C108.141 39.0384 106.559 37.4154 104.561 36.5447C103.658 38.5325 103.552 40.7963 104.266 42.8613C104.597 43.8282 105.123 44.7154 105.81 45.4673C106.498 46.2192 107.331 46.8195 108.259 47.2306C108.391 47.2893 108.534 47.3427 108.671 47.3907C108.312 48.4837 107.885 49.5528 107.393 50.5917C107.17 50.9807 106.979 51.3875 106.822 51.8081C106.542 52.3416 106.241 52.875 105.94 53.4086C106.543 52.1819 106.814 50.8165 106.727 49.45C106.495 47.2758 105.446 45.2745 103.795 43.8589C102.365 45.5051 101.621 47.6463 101.72 49.8341C101.903 51.7301 102.736 53.5019 104.075 54.8437C104.466 55.2705 104.445 55.2545 104.651 55.4679C103.507 57.157 102.213 58.7374 100.785 60.1893C101.597 59.1723 102.142 57.9649 102.369 56.6789C102.696 54.5149 102.173 52.3075 100.911 50.5277C100.004 51.1157 99.228 51.8868 98.63 52.7926C98.033 53.6985 97.627 54.7194 97.439 55.7912C97.251 56.8629 97.285 57.9624 97.538 59.0205C97.791 60.0785 98.258 61.0723 98.909 61.9392C97.593 63.0778 96.196 64.119 94.731 65.0548C95.334 64.4509 95.832 63.7494 96.205 62.9795C97.099 60.9829 97.186 58.7128 96.448 56.6522C95.431 56.9626 94.488 57.4798 93.677 58.1721C92.866 58.8644 92.204 59.7172 91.731 60.6778C91.258 61.6384 90.986 62.6865 90.929 63.7577C90.873 64.8288 91.034 65.9003 91.403 66.9061C89.902 67.6328 88.348 68.2445 86.755 68.736C87.561 68.3085 88.278 67.729 88.868 67.0288C90.239 65.3311 90.904 63.162 90.722 60.9789C88.555 61.1173 86.528 62.1074 85.075 63.7371C83.788 65.3116 83.128 67.315 83.227 69.3548C82.973 69.3868 80.453 69.4242 80.205 69.4615C80.205 69.8136 80.073 69.995 80.205 70.1871C81.32 70.0324 84.927 69.979 86.074 69.9897Z" fill="#4579CB"/>
</svg>
