<svg width="1437" height="682" viewBox="0 0 1437 682" fill="none" xmlns="http://www.w3.org/2000/svg">
<path fill-rule="evenodd" clip-rule="evenodd" d="M423.143 42.6453C396.645 57.3009 369.733 72.1852 332.505 80.2347C295.152 88.313 247.786 91.1017 200.994 93.8566H200.994C184.082 94.8523 167.245 95.8436 150.983 97.0786C120.334 99.4063 91.7223 102.599 68.4466 108.307C45.1481 114.022 27.3083 122.232 18.0763 134.512C-1.5116 160.567 -4.53921 194.586 13.2931 231.257C31.1349 267.947 69.8634 307.285 133.773 343.84C197.392 380.231 279.589 400.364 366.259 418.503C380.902 421.568 395.672 424.575 410.501 427.595C483.413 442.442 557.743 457.577 625.308 481.192C684.41 501.848 734.22 528.794 783.332 555.363C789.899 558.916 796.454 562.462 803.018 565.986C858.668 595.862 914.915 624.116 984.351 641.103C1060.47 659.731 1139.39 672.825 1210.12 678.018C1280.86 683.212 1343.36 680.499 1386.65 667.545C1407.85 661.204 1420.2 651.777 1426.91 640.397C1433.63 629.008 1434.74 615.579 1433.27 601.13C1432.07 589.233 1429.13 576.7 1426.17 564.097L1426.17 564.096C1425.53 561.386 1424.9 558.672 1424.28 555.962C1420.77 540.67 1417.8 525.462 1418.49 511.475C1419.15 498.33 1422.79 485.748 1426.78 473.324C1427.36 471.523 1427.95 469.726 1428.53 467.931C1431.99 457.322 1435.43 446.787 1437.22 436.007C1439.32 423.419 1439.17 410.524 1434.21 396.863C1429.24 383.197 1419.43 368.726 1402.14 353.012C1366.97 321.055 1311.69 291.981 1249.34 263.9C1218.17 249.863 1185.25 236.08 1152.21 222.312C1149.89 221.344 1147.57 220.377 1145.25 219.409L1145.24 219.407C1114.52 206.609 1083.8 193.811 1054.39 180.822C1018.44 164.941 982.773 147.395 947.062 129.674C943.74 128.025 940.416 126.375 937.092 124.724C904.691 108.633 872.229 92.5113 839.447 77.4625C767.157 44.2773 693.343 16.325 615.3 5.45242C537.171 -5.43278 492.24 7.68671 453.996 26.2875C443.401 31.4411 433.302 37.0264 423.143 42.6453ZM453.559 25.3883C491.973 6.70435 537.104 -6.45176 615.438 4.46198C693.623 15.3543 767.54 43.3528 839.864 76.5537C872.66 91.6089 905.135 107.737 937.533 123.827L937.534 123.827C940.859 125.478 944.183 127.129 947.507 128.779C983.219 146.5 1018.87 164.036 1054.8 179.907C1084.19 192.891 1114.9 205.685 1145.63 218.483L1145.63 218.484L1145.63 218.486L1145.63 218.487L1145.64 218.488L1146.06 218.666L1146.47 218.834L1146.84 218.991C1148.76 219.79 1150.68 220.59 1152.6 221.389C1185.64 235.156 1218.57 248.945 1249.75 262.988C1312.1 291.07 1367.52 320.198 1402.81 352.272C1420.19 368.064 1430.11 382.665 1435.15 396.521C1440.19 410.382 1440.33 423.458 1438.21 436.171C1436.4 447.032 1432.94 457.648 1429.48 468.252C1428.9 470.045 1428.31 471.837 1427.74 473.63C1423.75 486.049 1420.14 498.522 1419.49 511.525C1418.8 525.358 1421.75 540.444 1425.25 555.738C1425.86 558.422 1426.5 561.112 1427.13 563.802L1427.14 563.846L1427.14 563.848C1430.1 576.451 1433.06 589.061 1434.27 601.029C1435.74 615.574 1434.64 629.252 1427.77 640.905C1420.9 652.567 1408.29 662.115 1386.94 668.503C1343.47 681.51 1280.83 684.212 1210.05 679.016C1139.26 673.818 1060.28 660.714 984.113 642.074C914.547 625.056 858.208 596.75 802.545 566.867C795.978 563.341 789.421 559.794 782.853 556.241C733.737 529.67 683.999 502.764 624.979 482.136C557.483 458.546 483.234 443.426 410.322 428.579L410.315 428.578L410.312 428.577C395.481 425.557 380.706 422.548 366.054 419.482C279.396 401.345 197.051 381.187 133.276 344.708C69.2677 308.096 30.355 268.63 12.3938 231.694C-5.57701 194.739 -2.56952 160.31 17.2769 133.911L17.5701 134.132L17.277 133.911C26.7302 121.337 44.8709 113.06 68.2084 107.336C91.5686 101.607 120.249 98.4098 150.907 96.0815C167.215 94.8429 184.083 93.8498 201.013 92.853H201.013L201.013 92.853L201.014 92.853C247.779 90.0995 295.022 87.3179 332.294 79.2573C369.368 71.2411 396.092 56.4599 422.549 41.827L422.55 41.8268L422.55 41.8264L422.551 41.8262L422.551 41.8258C432.735 36.1932 442.88 30.5826 453.559 25.3883ZM459.499 76.0385C435.929 89.0577 411.982 102.285 378.862 109.438C345.634 116.614 303.5 119.091 261.881 121.538L261.88 121.538L261.879 121.538C246.838 122.422 231.864 123.303 217.403 124.4C190.143 126.467 164.699 129.302 144.002 134.372C123.282 139.447 107.431 146.737 99.2325 157.628C81.8248 180.752 79.1306 210.946 94.9832 243.502C110.845 276.077 145.281 311.011 202.119 343.476C258.696 375.792 331.796 393.673 408.883 409.785C421.896 412.505 435.022 415.175 448.201 417.855L448.205 417.855L448.212 417.857C513.069 431.046 579.192 444.493 639.297 465.475C691.874 483.824 736.185 507.763 779.871 531.364C785.707 534.517 791.532 537.664 797.364 540.79C846.86 567.327 896.881 592.421 958.629 607.511C1026.33 624.053 1096.53 635.682 1159.44 640.295C1222.36 644.909 1277.94 642.5 1316.43 631.001C1335.27 625.369 1346.25 617 1352.2 606.908C1358.17 596.806 1359.16 584.892 1357.86 572.063C1356.78 561.502 1354.17 550.378 1351.54 539.188L1351.54 539.187L1351.54 539.183C1350.97 536.773 1350.4 534.361 1349.85 531.95C1346.74 518.367 1344.09 504.852 1344.7 492.419C1345.29 480.735 1348.53 469.553 1352.08 458.517C1352.34 457.721 1352.6 456.926 1352.85 456.131C1353.09 455.392 1353.33 454.654 1353.58 453.917L1353.64 453.72C1356.71 444.299 1359.77 434.947 1361.36 425.378C1363.23 414.204 1363.1 402.76 1358.69 390.637C1354.28 378.51 1345.57 365.663 1330.19 351.711C1298.92 323.332 1249.75 297.51 1194.3 272.568C1166.57 260.1 1137.29 247.858 1107.91 235.628C1105.85 234.772 1103.79 233.915 1101.73 233.059C1074.4 221.688 1047.06 210.316 1020.9 198.775C988.924 184.668 957.198 169.083 925.435 153.343C922.477 151.877 919.519 150.41 916.56 148.943L916.557 148.941L916.556 148.94C887.741 134.649 858.872 120.332 829.719 106.967C765.423 77.4918 699.777 52.6662 630.371 43.01C560.892 33.3432 520.94 44.9944 486.934 61.5122C477.514 66.0879 468.534 71.048 459.499 76.0385ZM486.497 60.6127C520.674 44.012 560.825 32.3243 630.509 42.0195C700.057 51.6955 765.806 76.5672 830.136 106.058C859.305 119.43 888.189 133.756 917.004 148.046L917.094 148.091C920.023 149.544 922.951 150.996 925.879 152.447C957.643 168.187 989.35 183.763 1021.31 197.861C1047.46 209.396 1074.78 220.764 1102.12 232.135L1102.78 232.412L1108.29 234.705C1137.68 246.934 1166.97 259.181 1194.71 271.656C1250.16 296.599 1299.46 322.475 1330.87 350.97L1330.55 351.314L1330.87 350.971C1346.32 365.001 1355.15 377.977 1359.63 390.296C1364.11 402.618 1364.23 414.243 1362.35 425.543C1360.74 435.193 1357.66 444.625 1354.59 454.043C1354.36 454.747 1354.13 455.452 1353.9 456.156C1353.61 457.045 1353.32 457.934 1353.03 458.824C1349.48 469.854 1346.28 480.927 1345.7 492.469C1345.09 504.748 1347.71 518.141 1350.82 531.726C1351.37 534.123 1351.94 536.527 1352.5 538.931L1352.51 538.934C1355.14 550.127 1357.77 561.33 1358.85 571.962C1360.16 584.886 1359.18 597.05 1353.07 607.416C1346.94 617.791 1335.72 626.28 1316.71 631.959C1278.05 643.511 1222.32 645.909 1159.36 641.292C1096.39 636.675 1026.14 625.036 958.392 608.482C896.514 593.361 846.4 568.215 796.891 541.672C791.113 538.574 785.344 535.457 779.565 532.335L779.413 532.253L779.393 532.242C735.702 508.639 691.464 484.74 638.967 466.419C578.932 445.462 512.89 432.031 448.034 418.841C434.846 416.159 421.708 413.487 408.679 410.764C331.603 394.654 258.355 376.749 201.623 344.344C144.686 311.822 110.066 276.761 94.0841 243.94C78.0927 211.099 80.7668 180.495 98.4335 157.026C106.854 145.841 123.005 138.486 143.764 133.401C164.546 128.31 190.058 125.471 217.327 123.403C231.836 122.302 246.841 121.42 261.9 120.534C303.493 118.089 345.505 115.618 378.651 108.46C411.617 101.34 435.377 88.2164 458.906 75.2198C467.967 70.2152 476.993 65.2295 486.497 60.6127ZM427.376 139.289C456.181 133.069 477.013 121.565 497.508 110.248L497.509 110.247L497.511 110.246C505.363 105.91 513.167 101.601 521.351 97.6265C550.905 83.2746 585.627 73.1497 646.021 81.5503C706.356 89.9423 763.423 111.518 819.32 137.137C844.67 148.756 869.773 161.203 894.83 173.627L894.831 173.627L894.833 173.629C897.401 174.902 899.967 176.174 902.534 177.446C930.148 191.127 957.73 204.675 985.534 216.937C1008.27 226.963 1032.03 236.843 1055.78 246.722C1057.58 247.471 1059.38 248.221 1061.18 248.971C1086.73 259.6 1112.19 270.241 1136.29 281.078C1184.51 302.758 1227.24 325.199 1254.43 349.858C1267.79 361.981 1275.36 373.138 1279.19 383.667C1283.02 394.19 1283.13 404.125 1281.51 413.829C1280.13 422.142 1277.47 430.266 1274.8 438.455C1274.52 439.326 1274.23 440.198 1273.95 441.071C1273.78 441.588 1273.61 442.105 1273.45 442.623C1270.36 452.215 1267.54 461.942 1267.03 472.106C1266.49 482.923 1268.79 494.679 1271.5 506.485C1271.98 508.574 1272.47 510.665 1272.96 512.752L1272.97 512.778L1272.97 512.782C1275.25 522.508 1277.53 532.171 1278.46 541.345C1279.59 552.49 1278.72 562.83 1273.55 571.593C1268.38 580.347 1258.86 587.613 1242.48 592.505C1209.03 602.499 1160.72 604.594 1106.02 600.583C1051.33 596.574 990.297 586.465 931.442 572.085C877.765 558.971 834.282 537.163 791.249 514.099C786.179 511.381 781.115 508.647 776.042 505.907C738.059 485.393 699.528 464.583 653.811 448.633C601.554 430.398 544.065 418.709 487.682 407.245L487.681 407.245L487.674 407.243C476.211 404.913 464.794 402.591 453.475 400.226C386.453 386.22 322.908 370.678 273.729 342.595C224.319 314.38 194.391 284.023 180.608 255.724C166.834 227.445 169.178 201.227 184.296 181.151C191.41 171.704 205.172 165.372 223.184 160.961C241.174 156.556 263.291 154.092 286.991 152.295C299.561 151.342 312.577 150.577 325.653 149.808C361.839 147.681 398.481 145.527 427.376 139.289ZM646.159 80.5599C585.56 72.1308 550.639 82.2921 520.914 96.7269C512.645 100.743 504.794 105.078 496.915 109.429C476.462 120.724 455.816 132.125 427.165 138.311C398.352 144.532 361.832 146.679 325.672 148.805L325.668 148.805L325.667 148.805L325.665 148.805C312.574 149.575 299.529 150.341 286.915 151.298C263.206 153.096 241.02 155.564 222.946 159.99C204.895 164.41 190.833 170.808 183.497 180.549C168.12 200.97 165.796 227.598 179.709 256.162C193.612 284.707 223.724 315.191 273.233 343.463C322.566 371.635 386.26 387.201 453.271 401.205C464.603 403.573 476.03 405.896 487.499 408.229L487.502 408.229C543.885 419.693 601.294 431.366 653.481 449.577C699.118 465.499 737.576 486.269 775.563 506.784L775.564 506.785L775.587 506.798C780.653 509.534 785.711 512.265 790.776 514.98C833.822 538.051 877.399 559.911 931.205 573.056C990.106 587.448 1051.19 597.566 1105.94 601.581C1160.69 605.594 1209.14 603.51 1242.77 593.463C1259.3 588.524 1269.08 581.138 1274.41 572.101C1279.74 563.074 1280.59 552.485 1279.45 541.244C1278.51 531.998 1276.22 522.255 1273.93 512.526L1273.93 512.508C1273.44 510.423 1272.95 508.34 1272.47 506.262C1269.77 494.453 1267.49 482.819 1268.03 472.156C1268.53 462.134 1271.31 452.516 1274.4 442.929C1274.51 442.579 1274.62 442.228 1274.74 441.877C1274.9 441.385 1275.06 440.893 1275.22 440.401C1275.39 439.859 1275.57 439.317 1275.75 438.775L1275.75 438.773C1278.42 430.589 1281.1 422.386 1282.5 413.993C1284.14 404.164 1284.03 394.048 1280.13 383.325C1276.23 372.605 1268.55 361.318 1255.1 349.118C1227.79 324.341 1184.92 301.847 1136.7 280.166C1112.59 269.323 1087.12 258.677 1061.57 248.047C1059.77 247.298 1057.97 246.549 1056.17 245.8L1056.15 245.794C1032.4 235.917 1008.66 226.042 985.937 216.022C958.156 203.77 930.592 190.232 902.977 176.55C900.411 175.278 897.844 174.005 895.276 172.732L895.275 172.732C870.219 160.308 845.102 147.854 819.737 136.228C763.806 110.593 706.635 88.9716 646.159 80.5599ZM533.037 142.821C515.395 152.566 497.454 162.478 472.653 167.835C447.78 173.207 416.238 175.062 385.094 176.894C373.842 177.555 362.641 178.214 351.826 179.034C331.43 180.581 312.401 182.703 296.925 186.494C281.426 190.291 269.603 195.737 263.496 203.85C250.505 221.111 248.488 243.656 260.332 267.983C272.186 292.331 297.93 318.457 340.446 342.744C382.759 366.916 437.438 380.295 495.119 392.352C504.863 394.389 514.692 396.388 524.561 398.395C573.083 408.264 622.562 418.327 667.536 434.026C706.887 447.762 740.05 465.682 772.736 483.344L772.737 483.345L772.738 483.345L772.745 483.349L772.752 483.352C777.114 485.71 781.468 488.062 785.828 490.4C822.86 510.258 860.274 529.031 906.459 540.319C957.108 552.696 1009.63 561.398 1056.69 564.85C1103.77 568.303 1145.34 566.499 1174.12 557.899C1188.2 553.691 1196.38 547.444 1200.82 539.926C1205.26 532.4 1206 523.516 1205.03 513.927C1204.23 506.031 1202.27 497.714 1200.3 489.338C1199.88 487.534 1199.46 485.728 1199.04 483.923C1196.71 473.758 1194.72 463.628 1195.19 454.303C1195.62 445.543 1198.06 437.162 1200.71 428.903C1201.1 427.704 1201.49 426.508 1201.88 425.313L1201.88 425.309C1204.18 418.259 1206.46 411.272 1207.65 404.122C1209.04 395.776 1208.95 387.235 1205.66 378.189C1202.36 369.137 1195.86 359.54 1184.36 349.109C1160.98 327.886 1124.21 308.57 1082.72 289.904C1061.98 280.575 1040.07 271.414 1018.08 262.262L1016.31 261.528L1013.44 260.333L1013.44 260.332L1013.44 260.331C992.993 251.824 972.544 243.316 952.974 234.682C929.042 224.124 905.302 212.46 881.536 200.681C879.324 199.584 877.111 198.487 874.898 197.389L874.896 197.388C853.334 186.693 831.734 175.979 809.922 165.977C761.818 143.922 712.711 125.349 660.794 118.125C608.834 110.895 578.966 119.61 553.544 131.96C546.507 135.379 539.794 139.088 533.037 142.821ZM553.107 131.061C578.7 118.627 608.767 109.876 660.932 117.135C712.991 124.379 762.201 142.997 810.339 165.068C832.165 175.076 853.777 185.796 875.335 196.49L875.34 196.492L875.434 196.538C877.616 197.621 879.798 198.703 881.98 199.785C905.747 211.564 929.469 223.219 953.377 233.767C972.939 242.397 993.379 250.902 1013.83 259.41L1018.46 261.339C1040.45 270.49 1062.37 279.656 1083.13 288.992C1124.62 307.658 1161.52 327.029 1185.04 348.368C1196.61 358.877 1203.23 368.604 1206.6 377.847C1209.96 387.094 1210.05 395.816 1208.64 404.287C1207.43 411.517 1205.13 418.584 1202.83 425.63L1202.83 425.631L1202.82 425.635L1202.79 425.745C1202.65 426.186 1202.5 426.626 1202.36 427.067C1202.13 427.781 1201.89 428.495 1201.66 429.209C1199.01 437.463 1196.61 445.735 1196.19 454.353C1195.73 463.524 1197.69 473.532 1200.02 483.699C1200.42 485.48 1200.84 487.265 1201.26 489.051L1201.27 489.087L1201.27 489.09C1203.24 497.466 1205.22 505.86 1206.02 513.826C1207.01 523.51 1206.28 532.644 1201.68 540.435C1197.08 548.234 1188.65 554.602 1174.41 558.857C1145.45 567.51 1103.73 569.303 1056.62 565.847C1009.49 562.39 956.917 553.679 906.222 541.291C859.908 529.971 822.401 511.147 785.355 491.281C780.996 488.944 776.644 486.592 772.284 484.237L772.273 484.23L772.261 484.224L772.26 484.224C739.569 466.559 706.477 448.679 667.206 434.97C622.303 419.296 572.905 409.249 524.383 399.38C514.509 397.371 504.671 395.371 494.915 393.331C437.245 381.276 382.418 367.873 339.95 343.612C297.335 319.269 271.407 293.014 259.433 268.421C247.45 243.809 249.447 220.854 262.697 203.249C269.026 194.842 281.149 189.329 296.687 185.523C312.247 181.711 331.346 179.585 351.75 178.037C362.612 177.213 373.843 176.553 385.114 175.89H385.114C416.232 174.06 447.651 172.212 472.441 166.857C497.089 161.533 514.844 151.725 532.443 142.002C539.226 138.255 545.985 134.521 553.107 131.061ZM519.55 196.033C540.192 191.574 555.13 183.32 569.807 175.211L569.809 175.21C575.427 172.106 581.006 169.024 586.852 166.184C607.982 155.917 632.808 148.671 676.01 154.683C719.179 160.691 760.017 176.136 800.026 194.482C818.171 202.803 836.14 211.716 854.078 220.615L854.081 220.617L856.985 222.058C857.854 222.488 858.722 222.919 859.59 223.349C879.358 233.148 899.105 242.851 919.01 251.635C935.291 258.818 952.301 265.896 969.306 272.972L973.169 274.58C991.459 282.193 1009.68 289.813 1026.93 297.574C1061.45 313.101 1092.02 329.165 1111.45 346.809C1121 355.48 1126.41 363.453 1129.14 370.967C1131.87 378.475 1131.95 385.565 1130.8 392.498C1129.8 398.441 1127.91 404.249 1126 410.116L1125.96 410.236C1125.65 411.189 1125.33 412.143 1125.03 413.1C1122.82 419.971 1120.79 426.952 1120.43 434.252C1120.04 442.022 1121.7 450.459 1123.63 458.914C1123.98 460.417 1124.33 461.92 1124.68 463.421C1126.32 470.388 1127.94 477.3 1128.61 483.861C1129.42 491.829 1128.8 499.198 1125.12 505.437C1121.44 511.666 1114.66 516.852 1102.96 520.35C1079.04 527.499 1044.48 528.999 1005.33 526.128C966.187 523.257 922.508 516.02 880.381 505.726C841.976 496.337 810.863 480.725 780.061 464.208C776.443 462.267 772.828 460.314 769.207 458.357L769.173 458.339C741.986 443.648 714.396 428.739 681.66 417.31C644.243 404.247 603.08 395.874 562.719 387.664L562.701 387.66C554.5 385.992 546.333 384.331 538.236 382.638C490.258 372.607 444.792 361.48 409.609 341.38C374.253 321.18 352.856 299.457 343.006 279.224C333.166 259.011 334.846 240.292 345.63 225.963C350.691 219.238 360.499 214.713 373.387 211.556C386.252 208.404 402.075 206.639 419.038 205.352C428.029 204.67 437.341 204.123 446.697 203.572H446.697C472.606 202.048 498.854 200.504 519.55 196.033ZM676.147 153.693C632.742 147.652 607.716 154.934 586.414 165.284C580.484 168.166 574.857 171.275 569.214 174.393L569.213 174.393C554.578 182.479 539.827 190.629 519.339 195.055C498.725 199.509 472.599 201.046 446.717 202.569H446.717C437.342 203.12 428 203.67 418.963 204.355C401.99 205.643 386.099 207.412 373.149 210.584C360.222 213.752 350.113 218.343 344.831 225.361L345.23 225.662L344.831 225.361C333.788 240.035 332.128 259.164 342.107 279.662C352.077 300.14 373.658 321.991 409.112 342.248C444.45 362.437 490.065 373.589 538.031 383.617C546.146 385.313 554.328 386.978 562.54 388.648L562.541 388.648C602.9 396.858 643.983 405.215 681.33 418.254C713.985 429.654 741.503 444.524 768.694 459.217L768.696 459.218L768.735 459.239C772.355 461.195 775.969 463.148 779.589 465.089C810.404 481.614 841.609 497.277 880.143 506.697C922.316 517.003 966.051 524.249 1005.25 527.125C1044.44 529.999 1079.15 528.509 1103.24 521.308C1115.1 517.764 1122.13 512.456 1125.98 505.945C1129.82 499.443 1130.42 491.824 1129.6 483.761C1128.93 477.128 1127.29 470.138 1125.65 463.169C1125.3 461.674 1124.95 460.18 1124.61 458.691C1122.67 450.233 1121.05 441.918 1121.43 434.302C1121.78 427.144 1123.77 420.272 1125.98 413.406C1126.3 412.417 1126.62 411.428 1126.94 410.438L1126.94 410.434C1128.86 404.572 1130.78 398.685 1131.78 392.662C1132.96 385.604 1132.88 378.334 1130.08 370.625C1127.28 362.92 1121.76 354.818 1112.13 346.069C1092.56 328.308 1061.86 312.19 1027.34 296.662C1010.08 288.895 991.842 281.269 973.553 273.657L969.695 272.051C952.687 264.974 935.685 257.899 919.414 250.72C899.531 241.946 879.802 232.252 860.034 222.453C858.199 221.543 856.363 220.633 854.526 219.722C836.589 210.823 818.605 201.901 800.443 193.573C760.399 175.212 719.459 159.72 676.147 153.693Z" fill="url(#paint0_linear_2_28)"/>
<defs>
<linearGradient id="paint0_linear_2_28" x1="720.006" y1="0.500218" x2="720.006" y2="681.5" gradientUnits="userSpaceOnUse">
<stop stop-color="#E1E1E1"/>
<stop offset="1" stop-color="#E1E1E1" stop-opacity="0"/>
</linearGradient>
</defs>
</svg>
